<svg xmlns:xlink="http://www.w3.org/1999/xlink" xmlns="http://www.w3.org/2000/svg" title="Group of Eight Australia logo" width="108" height="45" viewBox="-415 261 100 42"><path fill="#FFFFFF" d="M-362.2 276.9c-2.9 0-3.7-1.4-3.7-3.2v-3c0-2 .5-3.7 3.9-3.7 1.7 0 2.5.6 2.7.7.1.1-.4 1.2-.5 1.1-.3-.2-.9-.6-2.1-.6-1.6 0-2.4.5-2.4 2.5v2.8c0 1.6.5 2.2 2 2.2 1.2 0 1.8-.4 1.8-1.7v-1.2c0-.1 0-.3-.2-.3h-.9c-.2 0-.3 0-.3-.2v-.7c0-.1 0-.2.2-.2h2.1c.5 0 .6.1.6.5v1.8c0 1.5-.3 3.2-3.2 3.2zM-352.6 272.3c-.2.1-.2 0-.1.2l1.8 3.7c.2.4.1.5-.1.5h-1.2c-.2 0-.3-.1-.4-.4l-1.7-3.5c-.1-.1-.1-.1-.2-.1h-1.3c-.1 0-.1 0-.1.2v3.4c0 .3-.1.4-.3.4h-1c-.3 0-.3-.2-.3-.5v-8.8c0-.2 0-.3.3-.3h2.8c2.3 0 3.6 1 3.6 2.8 0 1.4-1 2.3-1.8 2.4zm-1.9-4h-1.2c-.2 0-.2.1-.2.2v2.7c0 .2.1.2.3.2h1.6c.9 0 1.6-.5 1.6-1.6s-.9-1.5-2.1-1.5zM-346.4 276.9c-1.3 0-3.6-.3-3.6-2.8v-3.9c0-2.3 1.1-3.3 3.5-3.3 1.9 0 3.6.7 3.6 3.2v3.5c0 3.2-2.4 3.3-3.5 3.3zm1.9-6.6c0-1.4-.7-2.1-1.9-2.1-1.5 0-2.1.7-2.1 2.1v3.4c0 1.3 1.1 1.8 2 1.8 1.1 0 1.9-.3 1.9-2v-3.2zM-338.6 276.9c-1.5 0-3.3-.6-3.3-2.9v-6.5c0-.2.1-.3.2-.3h1c.2 0 .3.1.3.4v5.9c0 1.3.7 2.1 1.8 2.1 1.5 0 1.8-.8 1.8-2.1v-6c0-.2.1-.3.2-.3h1c.2 0 .3.1.3.4v6.2c.1 2.7-1.9 3.1-3.3 3.1zM-330.9 273.3h-1.5c-.2 0-.2 0-.2.3v2.8c0 .3-.1.4-.3.4h-1c-.3 0-.3-.2-.3-.5v-8.8c0-.2 0-.3.3-.3h2.8c2.4 0 3.6 1 3.6 3s-1.1 3.1-3.4 3.1zm-.3-5h-1.2c-.2 0-.2.1-.2.2v3.2c0 .2.1.2.3.2h1.6c.9 0 1.7-.6 1.7-1.9-.1-1.2-1-1.7-2.2-1.7zM-362.3 288.4c-1.3 0-3.6-.3-3.6-2.8v-3.9c0-2.3 1.1-3.3 3.5-3.3 1.9 0 3.6.7 3.6 3.2v3.5c0 3.2-2.4 3.3-3.5 3.3zm1.9-6.6c0-1.4-.7-2.1-1.9-2.1-1.5 0-2.1.7-2.1 2.1v3.4c0 1.3 1.1 1.8 2 1.8 1.1 0 1.9-.3 1.9-2v-3.2zM-353.1 279.8h-2.9c-.3 0-.3.1-.3.2v2.6c0 .2.1.3.3.3h2.5c.4 0 .4.1.4.2l-.1.7c-.1.3-.4.2-.6.2h-2.2c-.2 0-.3.1-.3.3v3.5c0 .2-.1.2-.2.2h-1c-.2 0-.3-.1-.3-.4v-8.8c0-.2 0-.4.2-.4h4.6c.3 0 .4.1.4.2v.7c0 .5-.2.5-.5.5zM-344.2 288.2h-5c-.2 0-.3-.1-.3-.4V279c0-.2 0-.4.2-.4h4.7c.3 0 .4 0 .4.2v.8c0 .2-.2.2-.6.2h-2.9c-.3 0-.3.1-.3.2v2.3c0 .2.1.3.3.3h2.6c.4 0 .4.1.4.2l-.1.7c0 .3-.4.2-.6.2h-2.2c-.3 0-.4.1-.4.3v2.6c0 .3.2.3.4.3h3.2c.3 0 .5 0 .5.2v.8c0 .3-.1.3-.3.3zM-341.7 288.2h-1c-.2 0-.3-.1-.3-.4v-8.9c0-.2.1-.3.4-.3h1c.2 0 .3.1.3.4v8.9c-.1.2-.2.3-.4.3zM-336.8 288.4c-2.9 0-3.7-1.4-3.7-3.2v-3c0-2 .5-3.7 3.9-3.7 1.7 0 2.5.6 2.7.7.1.1-.4 1.2-.5 1.1-.3-.2-.9-.6-2.1-.6-1.6 0-2.4.5-2.4 2.5v2.8c0 1.6.5 2.2 2 2.2 1.2 0 1.8-.4 1.8-1.7v-1.2c0-.1 0-.3-.2-.3h-.9c-.2 0-.3 0-.3-.2v-.7c0-.1 0-.2.2-.2h2.1c.5 0 .6.1.6.5v1.8c.1 1.5-.2 3.2-3.2 3.2zM-325.8 288.2h-1c-.2 0-.3-.1-.3-.4v-3.7c0-.2 0-.3-.2-.3h-3.4c-.2 0-.2 0-.2.2v3.7c0 .3-.1.4-.4.4h-.9c-.2 0-.3-.1-.3-.5V279c0-.2.1-.3.3-.3h.9c.3 0 .4.1.4.4v3.3c0 .2.1.2.3.2h3.3c.2 0 .2-.1.2-.2V279c0-.2.1-.4.4-.4h.9c.3 0 .3.1.3.3v8.8c0 .4-.1.5-.3.5zM-318.2 279.8h-2.1c-.3 0-.3 0-.3.2v7.7c0 .3 0 .4-.3.4h-.9c-.3 0-.3-.1-.3-.4V280c0-.2 0-.2-.3-.2h-2.1c-.2 0-.3-.1-.3-.2v-.8c0-.2.1-.2.4-.2h6.2c.3 0 .4 0 .4.2v.8c-.1.2-.2.2-.4.2z"></path><path fill="#FFFFFF" d="M-361.2 297.9h-.4c-.1 0-.1-.1-.2-.3l-.6-2h-2.8l-.6 2c-.1.2-.1.3-.2.3h-.4c-.1 0-.1 0 0-.4l2.2-7.1c.1-.2.1-.3.3-.3h.2c.2 0 .2.1.3.3l2.2 7.1c.2.4.1.4 0 .4zm-2.5-6.9l-1.3 4.3h2.5l-1.2-4.3zM-358.1 298.1c-1.3 0-2.4-.8-2.4-2.4v-5.3c0-.2 0-.3.1-.3h.4c.1 0 .1.1.1.4v5c0 1.3.8 2.1 1.9 2.1 1.5 0 1.9-.8 1.9-2.1v-5.1c0-.2 0-.3.1-.3h.4c.1 0 .1.1.1.4v5c-.1 2.1-1.3 2.6-2.6 2.6zM-352.4 298.1c-1.1 0-1.8-.3-2.1-.4-.1-.1.1-.6.2-.5.3.1.8.5 1.9.5 1.2 0 2.2-.4 2.2-1.5 0-.9-.4-1.4-1.9-2-1.2-.5-2-1-2-2.3 0-.8.6-1.8 2.5-1.8 1.2 0 1.5.2 1.7.2.2.1 0 .6-.2.5-.3-.1-.8-.2-1.5-.2-1.5 0-1.9.6-1.9 1.4 0 .9.5 1.3 1.9 1.8 1.7.6 2.1 1.4 2.1 2.3-.2 1.4-1.5 2-2.9 2zM-344.4 290.7h-1.8c-.2 0-.2 0-.2.2v6.7c0 .3 0 .4-.1.4h-.3c-.1 0-.1 0-.1-.4v-6.7c0-.2 0-.2-.2-.2h-1.8c-.1 0-.2 0-.2-.1v-.3c0-.1 0-.1.2-.1h4.7c.2 0 .2 0 .2.1v.4h-.4zM-340.2 294.3c-.1 0-.1 0-.1.1l1.6 3.2c.2.3.1.4 0 .4h-.4c-.1 0-.1-.1-.2-.3l-1.6-3.2c0-.1-.1-.1-.2-.1h-1.5c-.1 0-.1 0-.1.2v3.1c0 .3 0 .3-.1.3h-.4c-.2 0-.1-.1-.1-.4v-7.1c0-.2 0-.3.2-.3h1.8c1.8 0 2.8.6 2.8 2.1-.1 1.1-1 1.8-1.7 2zm-1.2-3.7h-1.2c-.2 0-.2.1-.2.2v2.8c0 .2 0 .2.2.2h1.6c1 0 1.7-.5 1.7-1.6 0-1.2-.9-1.6-2.1-1.6zM-332.2 297.9h-.4c-.1 0-.1-.1-.2-.3l-.6-2h-2.8l-.6 2c-.1.2-.1.3-.2.3h-.4c-.1 0-.1 0 0-.4l2.2-7.1c.1-.2.1-.3.3-.3h.2c.2 0 .2.1.3.3l2.2 7.1c.2.4.1.4 0 .4zm-2.5-6.9l-1.3 4.3h2.5l-1.2-4.3zM-326.9 297.9h-3.7c-.1 0-.2-.1-.2-.4v-7.1c0-.2 0-.3.2-.3h.3c.2 0 .2.1.2.4v6.7c0 .2.1.2.2.2h3c.2 0 .2 0 .2.2v.2c-.1.1-.1.1-.2.1zM-325.4 297.9h-.4c-.1 0-.1-.1-.1-.3v-7.3c0-.2 0-.2.2-.2h.2c.2 0 .2 0 .2.3v7.3c0 .2 0 .2-.1.2zM-318.7 297.9h-.4c-.1 0-.1-.1-.2-.3l-.6-2h-2.8l-.6 2c-.1.2-.1.3-.2.3h-.4c-.1 0-.1 0 0-.4l2.2-7.1c.1-.2.1-.3.3-.3h.2c.2 0 .2.1.3.3l2.2 7.1c.2.4.1.4 0 .4zm-2.5-6.9l-1.3 4.3h2.5l-1.2-4.3z"></path><path fill="#FFFFFF" d="M-412.3 280.5l2.8 11.9 8.2-9.9zM-393.4 264.6l-18.7 15.3 11.2 2.1zM-385.2 272.5l-7.5-8.1-7.4 17.2zM-387.1 289.9l1.7-16.7-14.8 9.1zM-384.8 273.3l-1.7 16.7 15.5-5.1zM-370.6 285.4l-15.9 5.2-.1.1 8.8 7.7zM-409 292.7l21.7-2.2-13.4-7.8zM-381.8 264.4l-3.1 8 14.1 11.9z"></path></svg>