<!DOCTYPE svg PUBLIC "-//W3C//DTD SVG 1.1//EN" "http://www.w3.org/Graphics/SVG/1.1/DTD/svg11.dtd">
<!-- Uploaded to: SVG Repo, www.svgrepo.com, Transformed by: SVG Repo Mixer Tools -->
<svg width="800px" height="800px" viewBox="0 0 512 512" enable-background="new 0 0 512 512" version="1.1" xml:space="preserve" xmlns="http://www.w3.org/2000/svg" xmlns:xlink="http://www.w3.org/1999/xlink" fill="#000000">
<g id="SVGRepo_bgCarrier" stroke-width="0"/>
<g id="SVGRepo_tracerCarrier" stroke-linecap="round" stroke-linejoin="round"/>
<g id="SVGRepo_iconCarrier"> <g id="_x30_1"/> <g id="_x30_2"/> <g id="_x30_3"/> <g id="_x30_4"/> <g id="_x30_5"/> <g id="_x30_6"/> <g id="_x30_7"/> <g id="_x30_8"/> <g id="_x30_9"/> <g id="_x31_0"/> <g id="_x31_1"/> <g id="_x31_2"/> <g id="_x31_3"/> <g id="_x31_4"/> <g id="_x31_5"/> <g id="_x31_6"/> <g id="_x31_7"/> <g id="_x31_8"/> <g id="_x31_9"/> <g id="_x32_0"/> <g id="_x32_1"/> <g id="_x32_2"/> <g id="_x32_3"/> <g id="_x32_4"/> <g id="_x32_5"/> <g id="_x32_6"/> <g id="_x32_7"/> <g id="_x32_8"/> <g id="_x32_9"/> <g id="_x33_0"/> <g id="_x33_1"/> <g id="_x33_2"/> <g id="_x33_3"/> <g id="_x33_4"/> <g id="_x33_5"/> <g id="_x33_6"/> <g id="_x33_7"/> <g id="_x33_8"/> <g id="_x33_9"/> <g id="_x34_0"/> <g id="_x34_1"/> <g id="_x34_2"/> <g id="_x34_3"/> <g id="_x34_4"/> <g id="_x34_5"/> <g id="_x34_6"/> <g id="_x34_7"/> <g id="_x34_8"/> <g id="_x34_9"/> <g id="_x35_0"> <g> <path d=" M-232.487-377.771v185.874c0,26.835-21.948,48.783-48.782,48.783l0,0c-26.863,0-48.811-21.948-48.811-48.783v-185.874H-232.487z" fill="none" stroke="#006dae" stroke-linecap="round" stroke-linejoin="round" stroke-miterlimit="10" stroke-width="20.1764"/> <path d=" M-346.169-405.292h129.8c4.829,0,8.802,3.973,8.802,8.831v9.859c0,4.858-3.973,8.831-8.802,8.831h-129.8 c-4.858,0-8.831-3.973-8.831-8.831v-9.859C-355-401.319-351.028-405.292-346.169-405.292L-346.169-405.292z" fill="none" stroke="#006dae" stroke-linecap="round" stroke-linejoin="round" stroke-miterlimit="10" stroke-width="20.1764"/> <line fill="none" stroke="#006dae" stroke-linecap="round" stroke-linejoin="round" stroke-miterlimit="10" stroke-width="20.1764" x1="-280.241" x2="-280.241" y1="-32" y2="-137.912"/> <line fill="none" stroke="#006dae" stroke-linecap="round" stroke-linejoin="round" stroke-miterlimit="10" stroke-width="20.1764" x1="-256.864" x2="-232.487" y1="-341.962" y2="-341.962"/> <line fill="none" stroke="#006dae" stroke-linecap="round" stroke-linejoin="round" stroke-miterlimit="10" stroke-width="20.1764" x1="-276.611" x2="-232.487" y1="-309.411" y2="-309.411"/> <line fill="none" stroke="#006dae" stroke-linecap="round" stroke-linejoin="round" stroke-miterlimit="10" stroke-width="20.1764" x1="-256.864" x2="-232.487" y1="-276.889" y2="-276.889"/> <line fill="none" stroke="#006dae" stroke-linecap="round" stroke-linejoin="round" stroke-miterlimit="10" stroke-width="20.1764" x1="-276.611" x2="-232.487" y1="-244.338" y2="-244.338"/> <line fill="none" stroke="#006dae" stroke-linecap="round" stroke-linejoin="round" stroke-miterlimit="10" stroke-width="20.1764" x1="-256.864" x2="-232.487" y1="-211.815" y2="-211.815"/> <path d=" M-265.209-489.627v84.335H-287.7v-84.335c3.515,0.515,7.288,0.772,11.26,0.772C-272.496-488.855-268.724-489.112-265.209-489.627 L-265.209-489.627z M-265.209-377.771v0.743H-287.7v-0.743H-265.209z" fill="none" stroke="#006dae" stroke-linecap="round" stroke-linejoin="round" stroke-miterlimit="10" stroke-width="20.1764"/> <path d=" M-276.439-488.855c18.203,0,33.093-5.944,33.093-13.232s-14.89-13.232-33.093-13.232c-18.233,0-33.093,5.944-33.093,13.232 S-294.672-488.855-276.439-488.855L-276.439-488.855z" fill="none" stroke="#006dae" stroke-linecap="round" stroke-linejoin="round" stroke-miterlimit="10" stroke-width="20.1764"/> </g> <g> <path d=" M91.626-345h327.615C460.364-345,494-311.363,494-270.239l0,0c0,41.096-33.636,74.732-74.759,74.732H91.626 c-41.123,0-74.759-33.637-74.759-74.732l0,0C16.867-311.363,50.503-345,91.626-345L91.626-345z" fill="none" stroke="#006dae" stroke-linecap="round" stroke-linejoin="round" stroke-miterlimit="10" stroke-width="20.1478"/> <path d=" M202.336-345h106.195c19.775,0,35.979,16.175,35.979,35.98v77.533c0,19.806-16.204,35.98-35.979,35.98H202.336 c-19.776,0-35.979-16.175-35.979-35.98v-77.533C166.357-328.825,182.561-345,202.336-345L202.336-345z" fill="none" stroke="#006dae" stroke-linecap="round" stroke-linejoin="round" stroke-miterlimit="10" stroke-width="20.1478"/> <line fill="none" stroke="#006dae" stroke-linecap="round" stroke-linejoin="round" stroke-miterlimit="10" stroke-width="20.1478" x1="390.578" x2="390.578" y1="-295.759" y2="-295.988"/> <line fill="none" stroke="#006dae" stroke-linecap="round" stroke-linejoin="round" stroke-miterlimit="10" stroke-width="20.1478" x1="395.007" x2="395.007" y1="-233.401" y2="-233.659"/> <line fill="none" stroke="#006dae" stroke-linecap="round" stroke-linejoin="round" stroke-miterlimit="10" stroke-width="20.1478" x1="448.076" x2="448.076" y1="-273.64" y2="-273.868"/> <line fill="none" stroke="#006dae" stroke-linecap="round" stroke-linejoin="round" stroke-miterlimit="10" stroke-width="20.1478" x1="65.992" x2="65.992" y1="-253.75" y2="-254.006"/> <line fill="none" stroke="#006dae" stroke-linecap="round" stroke-linejoin="round" stroke-miterlimit="10" stroke-width="20.1478" x1="111.859" x2="111.859" y1="-292.93" y2="-293.188"/> <line fill="none" stroke="#006dae" stroke-linecap="round" stroke-linejoin="round" stroke-miterlimit="10" stroke-width="20.1478" x1="118.29" x2="118.29" y1="-232.601" y2="-232.858"/> </g> <g> <path d=" M772.04-445.702h15.975c32.979,0,59.985,26.978,59.985,59.986v111.941c0,32.979-27.006,59.986-59.985,59.986H772.04 c-33.007,0-59.984-27.007-59.984-59.986v-111.941C712.056-418.724,739.033-445.702,772.04-445.702L772.04-445.702z" fill="none" stroke="#006dae" stroke-linecap="round" stroke-linejoin="round" stroke-miterlimit="10" stroke-width="20.1478"/> <path d=" M781.014-189.011L781.014-189.011c7.716,0,14.003,6.288,14.003,14.004v41.981c0,7.688-6.287,13.975-14.003,13.975l0,0 c-7.688,0-13.975-6.287-13.975-13.975v-41.981C767.039-182.723,773.326-189.011,781.014-189.011L781.014-189.011z" fill="none" stroke="#006dae" stroke-linecap="round" stroke-linejoin="round" stroke-miterlimit="10" stroke-width="20.1478"/> <path d=" M776.813-31c-22.291-40.695,14.518-43.64,1.829-88.279" fill="none" stroke="#006dae" stroke-linecap="round" stroke-linejoin="round" stroke-miterlimit="10" stroke-width="20.1478"/> <polyline fill="none" points=" 727.602,-368.74 818.564,-368.74 848,-368.74 " stroke="#006dae" stroke-linecap="round" stroke-linejoin="round" stroke-miterlimit="10" stroke-width="20.1478"/> <line fill="none" stroke="#006dae" stroke-linecap="round" stroke-linejoin="round" stroke-miterlimit="10" stroke-width="20.1478" x1="822.994" x2="848" y1="-334.761" y2="-334.761"/> <polyline fill="none" points=" 803.019,-298.409 836.997,-298.409 848,-298.409 " stroke="#006dae" stroke-linecap="round" stroke-linejoin="round" stroke-miterlimit="10" stroke-width="20.1478"/> <path d=" M781.414-455.276c11.659,0,21.176-13.689,21.176-30.465c0-16.804-9.517-30.493-21.176-30.493 c-11.66,0-21.176,13.689-21.176,30.493C760.238-468.965,769.754-455.276,781.414-455.276L781.414-455.276z" fill="none" stroke="#006dae" stroke-linecap="round" stroke-linejoin="round" stroke-miterlimit="10" stroke-width="20.1478"/> </g> <g> <path d=" M1369.082-388.708c76.22,21.157,132.188,91.05,132.188,174.055c0,99.76-80.86,180.653-180.62,180.653 C1220.861-34,1140-114.893,1140-214.653c0-83.939,57.233-154.494,134.81-174.778v-77.608h94.272V-388.708z" fill="none" stroke="#006dae" stroke-linecap="round" stroke-linejoin="round" stroke-miterlimit="10" stroke-width="20.1764"/> <path d=" M1266.973-516.77h109.945c10.098,0,18.325,8.228,18.325,18.324v13.081c0,10.096-8.228,18.324-18.325,18.324h-109.945 c-10.097,0-18.323-8.229-18.323-18.324v-13.081C1248.649-508.542,1256.876-516.77,1266.973-516.77L1266.973-516.77z" fill="none" stroke="#006dae" stroke-linecap="round" stroke-linejoin="round" stroke-miterlimit="10" stroke-width="20.1764"/> <line fill="none" stroke="#006dae" stroke-linecap="round" stroke-linejoin="round" stroke-miterlimit="10" stroke-width="20.1764" x1="1141.085" x2="1183.852" y1="-214.653" y2="-214.653"/> <line fill="none" stroke="#006dae" stroke-linecap="round" stroke-linejoin="round" stroke-miterlimit="10" stroke-width="20.1764" x1="1219.023" x2="1256.968" y1="-214.653" y2="-214.653"/> <line fill="none" stroke="#006dae" stroke-linecap="round" stroke-linejoin="round" stroke-miterlimit="10" stroke-width="20.1764" x1="1464.411" x2="1501.27" y1="-214.653" y2="-214.653"/> <line fill="none" stroke="#006dae" stroke-linecap="round" stroke-linejoin="round" stroke-miterlimit="10" stroke-width="20.1764" x1="1304.104" x2="1342.017" y1="-214.653" y2="-214.653"/> <line fill="none" stroke="#006dae" stroke-linecap="round" stroke-linejoin="round" stroke-miterlimit="10" stroke-width="20.1764" x1="1389.153" x2="1427.068" y1="-214.653" y2="-214.653"/> </g> <g> <path d=" M1851.903-450.299c91.603-163.988,299.592,18.78,171.549,160.75c-86.922,100.73-24.991,176.822-86.245,255.122 c-14.601-77.123-25.786-137.143-85.304-140.027c-59.518,2.885-70.732,62.905-85.332,140.027 c-61.226-78.3,0.677-154.392-86.216-255.122C1552.312-431.52,1760.272-614.287,1851.903-450.299L1851.903-450.299z" fill="none" stroke="#006dae" stroke-linecap="round" stroke-linejoin="round" stroke-miterlimit="10" stroke-width="20.1764"/> <path d=" M1823.587-395.99c3.503-23.667,28.316-54.309,28.316-54.309s24.726,26.228,31.407,55.222" fill="none" stroke="#006dae" stroke-linecap="round" stroke-linejoin="round" stroke-miterlimit="10" stroke-width="20.1764"/> <path d=" M1683.446-383.421c0,0-12.569-72.736,51.217-73.649" fill="none" stroke="#006dae" stroke-linecap="round" stroke-linejoin="round" stroke-miterlimit="10" stroke-width="20.1764"/> </g> <g> <path d=" M1813.001,118.922l169.687,124.174c24.484,17.938,29.867,52.657,11.929,77.169l0,0c-17.938,24.484-52.654,29.869-77.138,11.93 l-169.687-124.174L1813.001,118.922z" fill="none" stroke="#006dae" stroke-linecap="round" stroke-linejoin="round" stroke-miterlimit="10" stroke-width="20.1764"/> <path d=" M1711.916,204.333l7.495-10.233l-82.374-60.273c-60.776-44.504,9.104-150.383,74.848-102.278l82.375,60.272l4.372-5.979 c3.242-4.433,9.521-5.414,13.952-2.172l9.014,6.604c4.433,3.242,5.386,9.52,2.143,13.953l-86.717,118.492 c-3.243,4.433-9.52,5.415-13.953,2.172l-8.983-6.604C1709.654,215.043,1708.672,208.766,1711.916,204.333L1711.916,204.333z" fill="none" stroke="#006dae" stroke-linecap="round" stroke-linejoin="round" stroke-miterlimit="10" stroke-width="20.1764"/> <line fill="none" stroke="#006dae" stroke-linecap="round" stroke-linejoin="round" stroke-miterlimit="10" stroke-width="20.1764" x1="2027.46" x2="2000.061" y1="342.846" y2="322.766"/> <line fill="none" stroke="#006dae" stroke-linecap="round" stroke-linejoin="round" stroke-miterlimit="10" stroke-width="20.1764" x1="1829.393" x2="1845.695" y1="165.123" y2="142.841"/> <line fill="none" stroke="#006dae" stroke-linecap="round" stroke-linejoin="round" stroke-miterlimit="10" stroke-width="20.1764" x1="1845.934" x2="1875.414" y1="204.868" y2="164.587"/> <line fill="none" stroke="#006dae" stroke-linecap="round" stroke-linejoin="round" stroke-miterlimit="10" stroke-width="20.1764" x1="1888.801" x2="1905.104" y1="208.617" y2="186.334"/> <line fill="none" stroke="#006dae" stroke-linecap="round" stroke-linejoin="round" stroke-miterlimit="10" stroke-width="20.1764" x1="1905.311" x2="1934.821" y1="248.362" y2="208.052"/> <line fill="none" stroke="#006dae" stroke-linecap="round" stroke-linejoin="round" stroke-miterlimit="10" stroke-width="20.1764" x1="1948.21" x2="1964.512" y1="252.081" y2="229.798"/> <path d=" M2047.837,494.956c62.949,1.428,11.899-98.708,2.023-120.01C2038.229,398.24,1985.751,493.557,2047.837,494.956L2047.837,494.956z " fill="none" stroke="#006dae" stroke-linecap="round" stroke-linejoin="round" stroke-miterlimit="10" stroke-width="20.1764"/> </g> <g> <path d=" M1284.979,213.55c0.497,3.414,0.76,6.945,0.76,10.535c0,30.087-17.51,54.484-39.075,54.484c-21.564,0-39.045-24.396-39.045-54.484 c0-4.348,0.351-8.609,1.051-12.665c11.731,7.062,25.446,11.119,40.066,11.119l0,0 C1261.78,222.538,1274.123,219.299,1284.979,213.55L1284.979,213.55z" fill="none" stroke="#006dae" stroke-linecap="round" stroke-linejoin="round" stroke-miterlimit="10" stroke-width="20.1478"/> <path d=" M1437.834,303.228c19.814,0,35.98-16.167,35.98-35.982c0-19.815-16.166-35.982-35.98-35.982s-35.953,16.167-35.953,35.982 C1401.881,287.061,1418.02,303.228,1437.834,303.228L1437.834,303.228z" fill="none" stroke="#006dae" stroke-linecap="round" stroke-linejoin="round" stroke-miterlimit="10" stroke-width="20.1478"/> <path d=" M1326.826,59.145v85.271c0,42.986-35.135,78.122-78.091,78.122l0,0c-42.984,0-78.12-35.136-78.12-78.122V59.145" fill="none" stroke="#006dae" stroke-linecap="round" stroke-linejoin="round" stroke-miterlimit="10" stroke-width="20.1478"/> <path d=" M1170.615,59.145c12.461,0,22.617-10.156,22.617-22.617s-10.156-22.616-22.617-22.616c-12.46,0-22.615,10.155-22.615,22.616 S1158.155,59.145,1170.615,59.145L1170.615,59.145z" fill="none" stroke="#006dae" stroke-linecap="round" stroke-linejoin="round" stroke-miterlimit="10" stroke-width="20.1478"/> <path d=" M1326.826,60.663c12.461,0,22.615-10.156,22.615-22.617s-10.154-22.616-22.615-22.616c-12.432,0-22.587,10.155-22.587,22.616 S1314.395,60.663,1326.826,60.663L1326.826,60.663z" fill="none" stroke="#006dae" stroke-linecap="round" stroke-linejoin="round" stroke-miterlimit="10" stroke-width="20.1478"/> <path d=" M1437.834,306.846v93.531c0,53.141-43.481,96.623-96.593,96.623l0,0c-53.139,0-96.62-43.482-96.62-96.623V278.043" fill="none" stroke="#006dae" stroke-linecap="round" stroke-linejoin="round" stroke-miterlimit="10" stroke-width="20.1478"/> <line fill="none" stroke="#006dae" stroke-linecap="round" stroke-linejoin="round" stroke-miterlimit="10" stroke-width="20.1478" x1="1437.834" x2="1437.834" y1="267.246" y2="267.012"/> </g> <g> <path d=" M663.44,42.27h58.679l0,0c0,16.646,13.623,30.268,30.269,30.268h73.049c16.676,0,30.299-13.623,30.299-30.268l0,0h58.648 c29.401,0,53.441,24.041,53.441,53.441V446.6c0,29.4-24.04,53.441-53.441,53.441H663.44C634.041,500.042,610,476,610,446.6V95.711 C610,66.31,634.041,42.27,663.44,42.27L663.44,42.27z" fill="none" stroke="#006dae" stroke-linecap="round" stroke-linejoin="round" stroke-miterlimit="10" stroke-width="20.1478"/> <path d=" M752.388,12h73.049c16.676,0,30.299,13.623,30.299,30.27l0,0c0,16.646-13.623,30.268-30.299,30.268h-73.049 c-16.646,0-30.269-13.623-30.269-30.268l0,0C722.119,25.623,735.742,12,752.388,12L752.388,12z" fill="none" stroke="#006dae" stroke-linecap="round" stroke-linejoin="round" stroke-miterlimit="10" stroke-width="20.1478"/> <polygon fill="none" points=" 765.023,135.829 812.804,135.829 812.804,167.715 844.689,167.715 844.689,215.498 812.804,215.498 812.804,247.384 765.023,247.384 765.023,215.498 733.138,215.498 733.138,167.715 765.023,167.715 " stroke="#006dae" stroke-linecap="round" stroke-linejoin="round" stroke-miterlimit="10" stroke-width="20.1478"/> <line fill="none" stroke="#006dae" stroke-linecap="round" stroke-linejoin="round" stroke-miterlimit="10" stroke-width="20.1478" x1="672.722" x2="856.305" y1="314.777" y2="314.777"/> <line fill="none" stroke="#006dae" stroke-linecap="round" stroke-linejoin="round" stroke-miterlimit="10" stroke-width="20.1478" x1="672.722" x2="812.146" y1="373.009" y2="373.009"/> <line fill="none" stroke="#006dae" stroke-linecap="round" stroke-linejoin="round" stroke-miterlimit="10" stroke-width="20.1478" x1="672.722" x2="812.146" y1="431.271" y2="431.271"/> </g> <g> <path d=" M96.033,433.106h318.685c17.613,0,32.032,14.419,32.032,32.033l0,0c0,17.614-14.419,32.034-32.032,32.034H96.033 C78.419,497.173,64,482.754,64,465.14l0,0C64,447.525,78.419,433.106,96.033,433.106L96.033,433.106z" fill="none" stroke="#006dae" stroke-linecap="round" stroke-linejoin="round" stroke-miterlimit="10" stroke-width="20.1478"/> <path d=" M381.923,259.809c19.724,0,35.842-16.09,35.842-35.844s-16.119-35.873-35.842-35.873c-19.753,0-35.872,16.12-35.872,35.873 S362.169,259.809,381.923,259.809L381.923,259.809z" fill="none" stroke="#006dae" stroke-linecap="round" stroke-linejoin="round" stroke-miterlimit="10" stroke-width="20.1478"/> <rect fill="none" height="166.363" stroke="#006dae" stroke-linecap="round" stroke-linejoin="round" stroke-miterlimit="10" stroke-width="20.1478" transform="matrix(0.7311 0.6823 -0.6823 0.7311 143.7113 -143.748)" width="59.409" x="224.513" y="27.259"/> <path d=" M148.463,125.52l95.541,89.154l-63.684,68.258l-2.052-1.905l0,0c9.759-10.462-2.784-38.071-28.047-61.634 c-25.234-23.563-53.632-34.173-63.391-23.71l0,0l-2.052-1.905L148.463,125.52z" fill="none" stroke="#006dae" stroke-linecap="round" stroke-linejoin="round" stroke-miterlimit="10" stroke-width="20.1478"/> <path d=" M150.221,219.393c25.263,23.563,37.806,51.172,28.047,61.634c-9.759,10.463-38.158-0.175-63.391-23.739 c-25.263-23.563-37.806-51.143-28.047-61.605C96.589,185.22,124.987,195.83,150.221,219.393L150.221,219.393z" fill="none" stroke="#006dae" stroke-linecap="round" stroke-linejoin="round" stroke-miterlimit="10" stroke-width="20.1478"/> <path d=" M410.146,246.063v187.043h-56.475V246.063c6.565,8.381,16.793,13.746,28.252,13.746S403.581,254.445,410.146,246.063 L410.146,246.063z" fill="none" stroke="#006dae" stroke-linecap="round" stroke-linejoin="round" stroke-miterlimit="10" stroke-width="20.1478"/> <path d=" M304.229,100.403l90.383,90.004c-3.957-1.495-8.235-2.315-12.69-2.315c-19.079,0-34.67,14.918-35.813,33.704l-80.418-80.098 L304.229,100.403z" fill="none" stroke="#006dae" stroke-linecap="round" stroke-linejoin="round" stroke-miterlimit="10" stroke-width="20.1478"/> <line fill="none" stroke="#006dae" stroke-linecap="round" stroke-linejoin="round" stroke-miterlimit="10" stroke-width="20.1478" x1="148.932" x2="148.932" y1="368.336" y2="430.703"/> <line fill="none" stroke="#006dae" stroke-linecap="round" stroke-linejoin="round" stroke-miterlimit="10" stroke-width="20.1478" x1="117.749" x2="180.114" y1="366.255" y2="366.255"/> <line fill="none" stroke="#006dae" stroke-linecap="round" stroke-linejoin="round" stroke-miterlimit="10" stroke-width="20.1478" x1="321.756" x2="344.468" y1="15" y2="36.366"/> </g> <g> <path d=" M-281.978,14.657L-281.978,14.657c33.446,0,60.803,27.357,60.803,60.774v243.186c0,27.388-18.388,50.725-43.405,58.255v106.76 c0,9.539-7.829,17.368-17.398,17.368l0,0c-9.539,0-17.368-7.829-17.368-17.368v-106.76c-25.017-7.53-43.404-30.867-43.404-58.255 V75.431C-342.75,42.015-315.393,14.657-281.978,14.657L-281.978,14.657z" fill="none" stroke="#006dae" stroke-linecap="round" stroke-linejoin="round" stroke-miterlimit="10" stroke-width="20.1764"/> <line fill="none" stroke="#006dae" stroke-linecap="round" stroke-linejoin="round" stroke-miterlimit="10" stroke-width="20.1764" x1="-281.978" x2="-281.978" y1="87.49" y2="355.754"/> <line fill="none" stroke="#006dae" stroke-linecap="round" stroke-linejoin="round" stroke-miterlimit="10" stroke-width="20.1764" x1="-303.335" x2="-260.59" y1="161.763" y2="161.763"/> <line fill="none" stroke="#006dae" stroke-linecap="round" stroke-linejoin="round" stroke-miterlimit="10" stroke-width="20.1764" x1="-311.524" x2="-252.401" y1="207.389" y2="207.389"/> <line fill="none" stroke="#006dae" stroke-linecap="round" stroke-linejoin="round" stroke-miterlimit="10" stroke-width="20.1764" x1="-303.335" x2="-260.59" y1="254.574" y2="254.574"/> <path d=" M-281.917,87.49c8.909,0,16.168-7.259,16.168-16.168s-7.259-16.168-16.168-16.168c-8.909,0-16.198,7.259-16.198,16.168 S-290.826,87.49-281.917,87.49L-281.917,87.49z" fill="none" stroke="#006dae" stroke-linecap="round" stroke-linejoin="round" stroke-miterlimit="10" stroke-width="20.1764"/> </g> <g> <path d=" M-172.3,771.58c3.583,14.214,5.511,29.393,5.511,45.173c0,80.438-50.17,145.607-112.056,145.607 c-61.916,0-112.086-65.169-112.086-145.607c0-15.781,1.927-30.959,5.511-45.173H-172.3L-172.3,771.58z" fill="none" stroke="#006dae" stroke-linecap="round" stroke-linejoin="round" stroke-miterlimit="10" stroke-width="20.1764"/> <path d=" M-385.42,771.58h213.12l63.752-123.352c-113.291-105.192-206.134-119.557-333.578-3.523L-385.42,771.58z" fill="none" stroke="#006dae" stroke-linecap="round" stroke-linejoin="round" stroke-miterlimit="10" stroke-width="20.1764"/> <path d=" M-364.1,911.285h-153.884c-11.052-84.112,23.609-147.896,97.269-194.334" fill="none" stroke="#006dae" stroke-linecap="round" stroke-linejoin="round" stroke-miterlimit="10" stroke-width="20.1764"/> <line fill="none" stroke="#006dae" stroke-linecap="round" stroke-linejoin="round" stroke-miterlimit="10" stroke-width="20.1764" x1="-285.019" x2="-285.019" y1="628.773" y2="701.141"/> <line fill="none" stroke="#006dae" stroke-linecap="round" stroke-linejoin="round" stroke-miterlimit="10" stroke-width="20.1764" x1="-321.216" x2="-248.851" y1="664.972" y2="664.972"/> <path d=" M-190.641,911.315l158.523-0.03c11.083-84.112-23.61-147.896-97.27-194.334" fill="none" stroke="#006dae" stroke-linecap="round" stroke-linejoin="round" stroke-miterlimit="10" stroke-width="20.1764"/> <path d=" M-390.841,822.746c50.683-0.06,85.254-20.629,111.996-51.166c32.042,31.079,68.992,49.51,111.935,52.31" fill="none" stroke="#006dae" stroke-linecap="round" stroke-linejoin="round" stroke-miterlimit="10" stroke-width="20.1764"/> <path d=" M-455.135,911.285c-14.094-69.145,9.998-126.544,52.49-178.252" fill="none" stroke="#006dae" stroke-linecap="round" stroke-linejoin="round" stroke-miterlimit="10" stroke-width="20.1764"/> <path d=" M-98.581,911.285c14.093-69.145-9.999-126.544-52.489-178.252" fill="none" stroke="#006dae" stroke-linecap="round" stroke-linejoin="round" stroke-miterlimit="10" stroke-width="20.1764"/> </g> <g> <path d=" M165.545,1016.338c73.364,0,133.199-59.836,133.199-133.203c0-73.366-59.835-133.203-133.199-133.203 S32.346,809.769,32.346,883.135C32.346,956.501,92.181,1016.338,165.545,1016.338L165.545,1016.338z" fill="none" stroke="#006dae" stroke-linecap="round" stroke-linejoin="round" stroke-miterlimit="10" stroke-width="20.1478"/> <path d=" M398.322,880.54h83.541c8.69,0,15.775,7.114,15.775,15.775v11.14c0,8.66-7.085,15.775-15.775,15.775 c-63.421,0-126.317,1.283-189.68,1.283c4.257-13.034,6.561-26.944,6.561-41.378c0-73.571-59.63-133.203-133.199-133.203 c-14.463,0-28.372,2.304-41.377,6.561V596.551c0-17.35,14.171-31.551,31.521-31.551h22.278c17.35,0,31.55,14.201,31.55,31.551 v115.881h144.834c24.172,0,43.971,19.771,43.971,43.974V880.54L398.322,880.54z" fill="none" stroke="#006dae" stroke-linecap="round" stroke-linejoin="round" stroke-miterlimit="10" stroke-width="20.1478"/> <path d=" M444.831,1005.082c11.577,0,20.995-9.448,20.995-21.024c0-11.577-9.418-20.995-20.995-20.995 c-11.575,0-21.023,9.418-21.023,20.995C423.807,995.634,433.255,1005.082,444.831,1005.082L444.831,1005.082z" fill="none" stroke="#006dae" stroke-linecap="round" stroke-linejoin="round" stroke-miterlimit="10" stroke-width="20.1478"/> <polyline fill="none" points=" 255.443,784.837 369.747,784.837 398.322,784.837 " stroke="#006dae" stroke-linecap="round" stroke-linejoin="round" stroke-miterlimit="10" stroke-width="20.1478"/> <line fill="none" stroke="#006dae" stroke-linecap="round" stroke-linejoin="round" stroke-miterlimit="10" stroke-width="20.1478" x1="168.11" x2="168.11" y1="749.932" y2="1016.338"/> <line fill="none" stroke="#006dae" stroke-linecap="round" stroke-linejoin="round" stroke-miterlimit="10" stroke-width="20.1478" x1="34.912" x2="298.744" y1="883.135" y2="883.135"/> <line fill="none" stroke="#006dae" stroke-linecap="round" stroke-linejoin="round" stroke-miterlimit="10" stroke-width="20.1478" x1="261.507" x2="74.743" y1="788.161" y2="978.109"/> <line fill="none" stroke="#006dae" stroke-linecap="round" stroke-linejoin="round" stroke-miterlimit="10" stroke-width="20.1478" x1="74.743" x2="257.222" y1="788.161" y2="973.735"/> <polyline fill="none" points=" 341.17,880.54 455.475,880.54 484.05,880.54 " stroke="#006dae" stroke-linecap="round" stroke-linejoin="round" stroke-miterlimit="10" stroke-width="20.1478"/> <path d=" M34.795,610.869h89.373v41.086H34.795c-11.284,0-20.528-9.244-20.528-20.528l0,0C14.267,620.112,23.511,610.869,34.795,610.869 L34.795,610.869z" fill="none" stroke="#006dae" stroke-linecap="round" stroke-linejoin="round" stroke-miterlimit="10" stroke-width="20.1478"/> </g> </g> </g>
</svg>